<?xml version="1.0" encoding="UTF-8"?>
<svg id="Layer_2" data-name="Layer 2" xmlns="http://www.w3.org/2000/svg" viewBox="0 0 19.05 17.41">
  <defs>
    <style>
      .cls-1 {
        fill: none;
        stroke: #fff;
        stroke-linecap: round;
        stroke-linejoin: round;
        stroke-width: 2px;
      }
    </style>
  </defs>
  <g id="Layer_1-2" data-name="Layer 1">
    <path class="cls-1" d="m6.36,16.41c6.43,0,9.95-5.93,9.95-11.07,0-.17,0-.33,0-.5.68-.55,1.28-1.24,1.75-2.01-.64.31-1.32.52-2.01.61.73-.49,1.28-1.25,1.53-2.15-.69.46-1.44.77-2.22.94-1.32-1.57-3.54-1.65-4.95-.17-.91.95-1.3,2.37-1.01,3.72-2.8-.16-5.43-1.64-7.2-4.07-.93,1.78-.46,4.05,1.08,5.19-.56-.02-1.1-.18-1.59-.49v.05c0,1.85,1.17,3.44,2.81,3.82-.52.16-1.06.18-1.58.07.46,1.59,1.77,2.67,3.27,2.7-1.24,1.08-2.77,1.67-4.34,1.67-.28,0-.56-.02-.83-.05,1.6,1.15,3.46,1.74,5.36,1.74Z"/>
  </g>
</svg>